<svg width="46" height="46" viewBox="0 0 46 46" fill="none" xmlns="http://www.w3.org/2000/svg">
<mask id="mask0_2882_664" style="mask-type:alpha" maskUnits="userSpaceOnUse" x="0" y="0" width="46" height="46">
<rect width="46" height="46" transform="matrix(0 -1 -1 0 46 46)" fill="#D9D9D9"/>
</mask>
<g mask="url(#mask0_2882_664)">
<path d="M3.83366 22.9997C3.83366 24.5969 4.39269 25.9545 5.51074 27.0726C6.6288 28.1906 7.98644 28.7497 9.58366 28.7497C11.1809 28.7497 12.5385 28.1906 13.6566 27.0726C14.7746 25.9545 15.3337 24.5969 15.3337 22.9997C15.3337 21.4025 14.7746 20.0448 13.6566 18.9268C12.5385 17.8087 11.1809 17.2497 9.58366 17.2497C7.98644 17.2497 6.6288 17.8087 5.51074 18.9268C4.39269 20.0448 3.83366 21.4025 3.83366 22.9997ZM19.167 24.9163H34.8357L29.9003 29.8997L32.5837 32.583L42.167 22.9997L32.5837 13.4163L29.9003 16.1476L34.8357 21.083H19.167V24.9163Z" fill="#1C1B1F"/>
</g>
</svg>