<svg width="51" height="51" viewBox="0 0 51 51" fill="none" xmlns="http://www.w3.org/2000/svg">
<mask id="mask0_3344_7" style="mask-type:alpha" maskUnits="userSpaceOnUse" x="0" y="0" width="51" height="51">
<rect x="0.226562" y="0.370117" width="50" height="50" fill="#D9D9D9"/>
</mask>
<g mask="url(#mask0_3344_7)">
<path d="M41.0599 44.1201L27.9349 30.9951C26.8932 31.8284 25.6953 32.4882 24.3411 32.9743C22.987 33.4604 21.546 33.7034 20.0182 33.7034C16.2335 33.7034 13.0304 32.3927 10.4089 29.7712C7.78733 27.1496 6.47656 23.9465 6.47656 20.1618C6.47656 16.3771 7.78733 13.1739 10.4089 10.5524C13.0304 7.93088 16.2335 6.62012 20.0182 6.62012C23.803 6.62012 27.0061 7.93088 29.6276 10.5524C32.2491 13.1739 33.5599 16.3771 33.5599 20.1618C33.5599 21.6896 33.3168 23.1305 32.8307 24.4847C32.3446 25.8389 31.6849 27.0368 30.8516 28.0785L43.9766 41.2034L41.0599 44.1201ZM20.0182 29.5368C22.6224 29.5368 24.8359 28.6253 26.6589 26.8024C28.4818 24.9795 29.3932 22.7659 29.3932 20.1618C29.3932 17.5576 28.4818 15.3441 26.6589 13.5212C24.8359 11.6982 22.6224 10.7868 20.0182 10.7868C17.4141 10.7868 15.2005 11.6982 13.3776 13.5212C11.5547 15.3441 10.6432 17.5576 10.6432 20.1618C10.6432 22.7659 11.5547 24.9795 13.3776 26.8024C15.2005 28.6253 17.4141 29.5368 20.0182 29.5368Z" fill="white"/>
</g>
</svg>